# xmcd
#
# Track frame offsets: 
#        150
#        15150
#        30518
#        42938
#        57525
#        70595
#        84625
#        98668
#        111428
#        123720
#        137010
#        150520
#        164214
#        178480
#        192017
#        207392
#        222507
#        234047
#        246810
#        258975
#
# Disc length: 3635 seconds
#
# Revision: 0
# Processed by: cddbd v1.5.1PL0 Copyright (c) Steve Scherf et al.
# Submitted via: ExactAudioCopy v0.95a5
#
DISCID=1a0e3114
DTITLE=Muddy Waters - His Best: 1947-1955
DYEAR=1997
DGENRE=Blues
TTITLE0=I Can't Be Satisfied
TTITLE1=I Feel Like Going Home
TTITLE2=Train Fare Blues
TTITLE3=Rollin' and Tumblin', Pt. 1
TTITLE4=Rollin' Stone
TTITLE5=Louisiana Blues
TTITLE6=Long Distance Call
TTITLE7=Honey Bee
TTITLE8=She Moves Me
TTITLE9=Still a Fool
TTITLE10=Standing Around Crying
TTITLE11=Baby Please Don't Go
TTITLE12=I Want You to Love Me
TTITLE13=(I'm Your) Hoochie Coochie Man
TTITLE14=I Just Want to Make Love to You
TTITLE15=I'm Ready
TTITLE16=Young Fashioned Ways
TTITLE17=Mannish Boy
TTITLE18=Sugar Sweet
TTITLE19=Trouble No More
EXTD=
EXTT0=
EXTT1=
EXTT2=
EXTT3=
EXTT4=
EXTT5=
EXTT6=
EXTT7=
EXTT8=
EXTT9=
EXTT10=
EXTT11=
EXTT12=
EXTT13=
EXTT14=
EXTT15=
EXTT16=
EXTT17=
EXTT18=
EXTT19=
PLAYORDER=
